<?xml version="1.0" encoding="utf-8"?>
<COLLADA xmlns="http://www.collada.org/2005/11/COLLADASchema" version="1.4.1">
  <asset>
    <contributor>
      <authoring_tool>Codex generated RM75 smooth wave visual mesh</authoring_tool>
    </contributor>
    <unit name="meter" meter="1"/>
    <up_axis>Z_UP</up_axis>
  </asset>
  <library_effects>
    <effect id="wave_orange_effect">
      <profile_COMMON>
        <technique sid="common">
          <phong>
            <emission><color>0 0 0 1</color></emission>
            <ambient><color>1.0 0.45 0.05 1</color></ambient>
            <diffuse><color>1.0 0.38 0.06 1</color></diffuse>
            <specular><color>0.05 0.05 0.05 1</color></specular>
            <shininess><float>8</float></shininess>
          </phong>
        </technique>
      </profile_COMMON>
    </effect>
  </library_effects>
  <library_materials>
    <material id="wave_orange_material" name="wave_orange_material">
      <instance_effect url="#wave_orange_effect"/>
    </material>
  </library_materials>
  <library_geometries>
    <geometry id="smooth_wave_surface_mesh" name="smooth_wave_surface_mesh">
      <mesh>
        <source id="smooth_wave_surface_positions">
          <float_array id="smooth_wave_surface_positions_array" count="225">-0.09000 -0.04500 0.00300 -0.09000 0.00000 0.00300 -0.09000 0.04500 0.00300 -0.08250 -0.04500 0.00421 -0.08250 0.00000 0.00421 -0.08250 0.04500 0.00421 -0.07500 -0.04500 0.00750 -0.07500 0.00000 0.00750 -0.07500 0.04500 0.00750 -0.06750 -0.04500 0.01200 -0.06750 0.00000 0.01200 -0.06750 0.04500 0.01200 -0.06000 -0.04500 0.01650 -0.06000 0.00000 0.01650 -0.06000 0.04500 0.01650 -0.05250 -0.04500 0.01979 -0.05250 0.00000 0.01979 -0.05250 0.04500 0.01979 -0.04500 -0.04500 0.02100 -0.04500 0.00000 0.02100 -0.04500 0.04500 0.02100 -0.03750 -0.04500 0.01979 -0.03750 0.00000 0.01979 -0.03750 0.04500 0.01979 -0.03000 -0.04500 0.01650 -0.03000 0.00000 0.01650 -0.03000 0.04500 0.01650 -0.02250 -0.04500 0.01200 -0.02250 0.00000 0.01200 -0.02250 0.04500 0.01200 -0.01500 -0.04500 0.00750 -0.01500 0.00000 0.00750 -0.01500 0.04500 0.00750 -0.00750 -0.04500 0.00421 -0.00750 0.00000 0.00421 -0.00750 0.04500 0.00421 0.00000 -0.04500 0.00300 0.00000 0.00000 0.00300 0.00000 0.04500 0.00300 0.00750 -0.04500 0.00421 0.00750 0.00000 0.00421 0.00750 0.04500 0.00421 0.01500 -0.04500 0.00750 0.01500 0.00000 0.00750 0.01500 0.04500 0.00750 0.02250 -0.04500 0.01200 0.02250 0.00000 0.01200 0.02250 0.04500 0.01200 0.03000 -0.04500 0.01650 0.03000 0.00000 0.01650 0.03000 0.04500 0.01650 0.03750 -0.04500 0.01979 0.03750 0.00000 0.01979 0.03750 0.04500 0.01979 0.04500 -0.04500 0.02100 0.04500 0.00000 0.02100 0.04500 0.04500 0.02100 0.05250 -0.04500 0.01979 0.05250 0.00000 0.01979 0.05250 0.04500 0.01979 0.06000 -0.04500 0.01650 0.06000 0.00000 0.01650 0.06000 0.04500 0.01650 0.06750 -0.04500 0.01200 0.06750 0.00000 0.01200 0.06750 0.04500 0.01200 0.07500 -0.04500 0.00750 0.07500 0.00000 0.00750 0.07500 0.04500 0.00750 0.08250 -0.04500 0.00421 0.08250 0.00000 0.00421 0.08250 0.04500 0.00421 0.09000 -0.04500 0.00300 0.09000 0.00000 0.00300 0.09000 0.04500 0.00300</float_array>
          <technique_common>
            <accessor source="#smooth_wave_surface_positions_array" count="75" stride="3">
              <param name="X" type="float"/>
              <param name="Y" type="float"/>
              <param name="Z" type="float"/>
            </accessor>
          </technique_common>
        </source>
        <vertices id="smooth_wave_surface_vertices">
          <input semantic="POSITION" source="#smooth_wave_surface_positions"/>
        </vertices>
        <triangles material="wave_orange_material" count="192">
          <input semantic="VERTEX" source="#smooth_wave_surface_vertices" offset="0"/>
          <p>0 3 4 0 4 1 4 3 0 1 4 0 1 4 5 1 5 2 5 4 1 2 5 1 3 6 7 3 7 4 7 6 3 4 7 3 4 7 8 4 8 5 8 7 4 5 8 4 6 9 10 6 10 7 10 9 6 7 10 6 7 10 11 7 11 8 11 10 7 8 11 7 9 12 13 9 13 10 13 12 9 10 13 9 10 13 14 10 14 11 14 13 10 11 14 10 12 15 16 12 16 13 16 15 12 13 16 12 13 16 17 13 17 14 17 16 13 14 17 13 15 18 19 15 19 16 19 18 15 16 19 15 16 19 20 16 20 17 20 19 16 17 20 16 18 21 22 18 22 19 22 21 18 19 22 18 19 22 23 19 23 20 23 22 19 20 23 19 21 24 25 21 25 22 25 24 21 22 25 21 22 25 26 22 26 23 26 25 22 23 26 22 24 27 28 24 28 25 28 27 24 25 28 24 25 28 29 25 29 26 29 28 25 26 29 25 27 30 31 27 31 28 31 30 27 28 31 27 28 31 32 28 32 29 32 31 28 29 32 28 30 33 34 30 34 31 34 33 30 31 34 30 31 34 35 31 35 32 35 34 31 32 35 31 33 36 37 33 37 34 37 36 33 34 37 33 34 37 38 34 38 35 38 37 34 35 38 34 36 39 40 36 40 37 40 39 36 37 40 36 37 40 41 37 41 38 41 40 37 38 41 37 39 42 43 39 43 40 43 42 39 40 43 39 40 43 44 40 44 41 44 43 40 41 44 40 42 45 46 42 46 43 46 45 42 43 46 42 43 46 47 43 47 44 47 46 43 44 47 43 45 48 49 45 49 46 49 48 45 46 49 45 46 49 50 46 50 47 50 49 46 47 50 46 48 51 52 48 52 49 52 51 48 49 52 48 49 52 53 49 53 50 53 52 49 50 53 49 51 54 55 51 55 52 55 54 51 52 55 51 52 55 56 52 56 53 56 55 52 53 56 52 54 57 58 54 58 55 58 57 54 55 58 54 55 58 59 55 59 56 59 58 55 56 59 55 57 60 61 57 61 58 61 60 57 58 61 57 58 61 62 58 62 59 62 61 58 59 62 58 60 63 64 60 64 61 64 63 60 61 64 60 61 64 65 61 65 62 65 64 61 62 65 61 63 66 67 63 67 64 67 66 63 64 67 63 64 67 68 64 68 65 68 67 64 65 68 64 66 69 70 66 70 67 70 69 66 67 70 66 67 70 71 67 71 68 71 70 67 68 71 67 69 72 73 69 73 70 73 72 69 70 73 69 70 73 74 70 74 71 74 73 70 71 74 70</p>
        </triangles>
      </mesh>
    </geometry>
  </library_geometries>
  <library_visual_scenes>
    <visual_scene id="Scene" name="Scene">
      <node id="smooth_wave_surface_node" name="smooth_wave_surface_node">
        <instance_geometry url="#smooth_wave_surface_mesh">
          <bind_material>
            <technique_common>
              <instance_material symbol="wave_orange_material" target="#wave_orange_material"/>
            </technique_common>
          </bind_material>
        </instance_geometry>
      </node>
    </visual_scene>
  </library_visual_scenes>
  <scene>
    <instance_visual_scene url="#Scene"/>
  </scene>
</COLLADA>
